<svg xmlns="http://www.w3.org/2000/svg" width="9.995" height="10" viewBox="0 0 9.995 10">
  <title>button_3</title>
  <path d="M497.74,495a4.967,4.967,0,0,1,1.323.176,4.854,4.854,0,0,1,.62.215,4.688,4.688,0,0,1,.576.293,5.534,5.534,0,0,1,.53.359,4.467,4.467,0,0,1,.48.427,5.459,5.459,0,0,1,.787,1.006,5.321,5.321,0,0,1,.287.576,4.761,4.761,0,0,1,.215.62,5.324,5.324,0,0,1,.135.652,5.005,5.005,0,0,1,0,1.353,5.324,5.324,0,0,1-.135.652,5.086,5.086,0,0,1-2.3,2.988,5.027,5.027,0,0,1-2.518.684,4.855,4.855,0,0,1-1.333-.181,5,5,0,0,1-1.2-.5,4.819,4.819,0,0,1-.527-0.354,5.471,5.471,0,0,1-.483-0.423,5.616,5.616,0,0,1-.425-0.485,4.722,4.722,0,0,1-.356-0.53,5.187,5.187,0,0,1-.5-1.191,4.227,4.227,0,0,1-.134-0.654,5.436,5.436,0,0,1-.042-0.679,5.38,5.38,0,0,1,.042-0.676,4.232,4.232,0,0,1,.134-0.652,4.784,4.784,0,0,1,.507-1.2,4.515,4.515,0,0,1,.356-0.527,5.2,5.2,0,0,1,.425-0.479,4.518,4.518,0,0,1,.48-0.427,5.534,5.534,0,0,1,.53-0.359,4.775,4.775,0,0,1,1.19-.508A5.04,5.04,0,0,1,497.74,495Zm0,9.375a4.411,4.411,0,0,0,1.162-.156,4.216,4.216,0,0,0,1.044-.444,4.08,4.08,0,0,0,.883-0.684,4.4,4.4,0,0,0,.684-0.884,4.466,4.466,0,0,0,.438-1.04,4.436,4.436,0,0,0,0-2.334,4.466,4.466,0,0,0-.438-1.04,4,4,0,0,0-.312-0.466,5.239,5.239,0,0,0-.372-0.422,4.713,4.713,0,0,0-.417-0.371,3.768,3.768,0,0,0-.466-0.312,4.4,4.4,0,0,0-3.372-.439,4.132,4.132,0,0,0-1.044.439,4.394,4.394,0,0,0-.883.684,5.139,5.139,0,0,0-.371.422,3.768,3.768,0,0,0-.312.466,4.336,4.336,0,0,0-.444,1.04,4.436,4.436,0,0,0,0,2.334,4.336,4.336,0,0,0,.444,1.04,4.292,4.292,0,0,0,.679.889,4.483,4.483,0,0,0,.888.684,4.168,4.168,0,0,0,1.044.439A4.39,4.39,0,0,0,497.745,504.375Zm0.31-4.692h2.192v0.625h-2.192V502.5H497.43v-2.192h-2.187v-0.625h2.188V497.5h0.625v2.183Z" transform="translate(-492.742 -495)" fill="#fff"/>
</svg>
