<?xml version="1.0" encoding="utf-8"?>
<!-- Generator: Adobe Illustrator 18.0.0, SVG Export Plug-In . SVG Version: 6.00 Build 0)  -->
<!DOCTYPE svg PUBLIC "-//W3C//DTD SVG 1.1//EN" "http://www.w3.org/Graphics/SVG/1.1/DTD/svg11.dtd">
<svg version="1.1" id="Layer_1" xmlns="http://www.w3.org/2000/svg" xmlns:xlink="http://www.w3.org/1999/xlink" x="0px" y="0px"
	 viewBox="0 0 90 90" enable-background="new 0 0 90 90" xml:space="preserve">
<title>icon_top</title>
<path fill="#FFFFFF" d="M81.6,33.8c1.1,0,2.2,0.2,3.3,0.7c1,0.4,1.9,1,2.7,1.8c1.6,1.6,2.5,3.7,2.5,6c-0.1,0.8-0.2,1.7-0.4,2.5
	c-0.3,1.2-0.7,2.5-1.1,4.1s-1,3.3-1.7,5.2c-0.6,1.9-1.3,3.8-1.9,5.8c-0.7,2-1.4,3.9-2,5.9c-0.7,1.9-1.3,3.7-1.9,5.4l-1.6,4.5
	c-0.5,1.3-0.8,2.3-1,3c-0.3,0.8-0.7,1.6-1.2,2.4c-0.5,0.7-1.1,1.3-1.8,1.8c-0.7,0.5-1.5,0.9-2.3,1.2c-0.8,0.3-1.7,0.4-2.6,0.4H0
	V33.8c0.7,0,1.9,0,3.6,0.1c1.7,0,3.6,0.1,5.8,0.1c2.2,0,4.4,0.1,6.8,0.1c2.4,0,4.6,0,6.6-0.1c2-0.1,3.8-0.2,5.2-0.3
	c0.9,0,1.8-0.2,2.6-0.7l25-25c0.6-0.7,1.4-1.2,2.2-1.7c0.8-0.4,1.7-0.6,2.7-0.6c0.9,0,1.9,0.2,2.7,0.5c1.7,0.7,3,2.1,3.8,3.8
	c0.4,0.9,0.6,1.8,0.5,2.7c0,1.7-0.1,3.4-0.3,5.1c-0.2,1.3-0.5,2.5-0.9,3.8c-0.3,1-0.7,2-1.2,3c-0.4,0.9-0.8,1.8-1.3,2.7
	c-0.4,0.9-0.8,1.9-1.1,2.9c-0.4,1.2-0.6,2.4-0.7,3.6L81.6,33.8L81.6,33.8z M5.6,78.8h16.9V39.4H5.6V78.8z M70.3,78.8
	c0.6,0,1.2-0.2,1.6-0.5c0.5-0.3,0.9-0.8,1.1-1.4c0.1-0.4,0.4-1.2,0.8-2.4c0.4-1.2,0.9-2.6,1.4-4.2c0.6-1.7,1.2-3.5,1.8-5.4
	c0.7-2,1.3-4,2-6s1.3-4,2-5.9c0.6-1.9,1.2-3.6,1.7-5.2c0.5-1.5,0.9-2.8,1.2-3.8c0.2-0.6,0.3-1.1,0.4-1.7c0-1.5-1.3-2.8-2.8-2.8H56.2
	c0-1.4,0-2.8,0.1-4.1c0.1-1.3,0.2-2.6,0.4-3.9c0.2-1.3,0.5-2.5,0.9-3.8c0.5-1.3,1.1-2.6,1.8-3.8c0.8-1.5,1.5-3.1,1.8-4.7
	c0.4-1.7,0.6-3.4,0.6-5.1v-0.9c0-0.3,0-0.6-0.1-0.9c-0.1-0.3-0.2-0.5-0.4-0.7c-0.3-0.2-0.6-0.3-0.9-0.3l-0.4,0.2
	c-0.2,0.1-0.3,0.2-0.4,0.3l-25,25.1c-0.8,0.9-1.8,1.5-3,1.9c-1.1,0.4-2.3,0.6-3.5,0.5v39.4C28.1,78.8,70.3,78.8,70.3,78.8z"/>
</svg>
