<?xml version="1.0" encoding="utf-8"?>
<!-- Generator: Adobe Illustrator 18.0.0, SVG Export Plug-In . SVG Version: 6.00 Build 0)  -->
<!DOCTYPE svg PUBLIC "-//W3C//DTD SVG 1.1//EN" "http://www.w3.org/Graphics/SVG/1.1/DTD/svg11.dtd">
<svg version="1.1" id="Layer_1" xmlns="http://www.w3.org/2000/svg" xmlns:xlink="http://www.w3.org/1999/xlink" x="0px" y="0px"
	 viewBox="0 0 90 90" enable-background="new 0 0 90 90" xml:space="preserve">
<title>icon_recent</title>
<path fill="#FFFFFF" d="M45,90c-4,0-8.1-0.5-12-1.6C17.8,84.2,5.8,72.2,1.6,57c-2.1-7.8-2.1-16.1,0-24C5.8,17.8,17.8,5.8,33,1.6
	c7.8-2.1,16.1-2.1,24,0C72.2,5.8,84.2,17.8,88.4,33c2.1,7.8,2.1,16.1,0,24C84.2,72.2,72.2,84.2,57,88.4C53.1,89.5,49.1,90,45,90z
	 M45,6.4c-5.2,0-10.3,1-15,3C20.8,13.4,13.4,20.8,9.5,30c-2,4.7-3.1,9.8-3,15c0,5.2,1,10.3,3,15c3.9,9.2,11.3,16.6,20.5,20.5
	c4.7,2,9.8,3.1,15,3c5.2,0,10.3-1,15-3c9.2-3.9,16.6-11.3,20.5-20.5c2-4.7,3.1-9.8,3-15c0-5.2-1-10.3-3-15
	C76.6,20.8,69.2,13.4,60,9.5C55.3,7.4,50.2,6.4,45,6.4z M45,45V19.3h-6.4v32.1h25.7V45H45z"/>
</svg>
