<svg xmlns="http://www.w3.org/2000/svg" viewBox="0 0 27.25 23.844"><title>icon_top_yellow</title><path d="M25.07,8.97a2.473,2.473,0,0,1,.985.2,2.644,2.644,0,0,1,.818.546,2.516,2.516,0,0,1,.752,1.81,3.717,3.717,0,0,1-.126.752q-0.126.526-.346,1.251t-0.5,1.583q-0.279.858-.585,1.756T25.45,18.643q-0.313.878-.579,1.643L24.4,21.643q-0.206.592-.313,0.911a2.659,2.659,0,0,1-.373.712,2.444,2.444,0,0,1-.559.552,2.652,2.652,0,0,1-.7.353,2.487,2.487,0,0,1-.792.126H0.375V8.97q0.306,0,1.078.02T3.2,9.03q0.978,0.02,2.056.027t2-.027Q8.185,9,8.837,8.93a1.544,1.544,0,0,0,.8-0.213l7.571-7.558A3.09,3.09,0,0,1,17.872.64,1.639,1.639,0,0,1,18.684.454a2.062,2.062,0,0,1,.825.166,2.162,2.162,0,0,1,1.138,1.138,2.062,2.062,0,0,1,.166.825,10.217,10.217,0,0,1-.1,1.537,7.573,7.573,0,0,1-.259,1.144,7.672,7.672,0,0,1-.353.911Q19.908,6.588,19.721,7a8.829,8.829,0,0,0-.339.878,5.32,5.32,0,0,0-.22,1.091H25.07ZM2.078,22.595H7.187V10.673H2.078V22.595Zm19.586,0a0.836,0.836,0,0,0,.492-0.16,0.853,0.853,0,0,0,.319-0.426q0.053-.186.24-0.719t0.439-1.284q0.253-.752.552-1.65t0.612-1.823q0.313-.925.6-1.8t0.512-1.563q0.226-.692.359-1.138a3.593,3.593,0,0,0,.133-0.512,0.863,0.863,0,0,0-.852-0.852H17.406q0-.652.027-1.251a10.063,10.063,0,0,1,.12-1.171,7,7,0,0,1,.286-1.138,5.862,5.862,0,0,1,.539-1.138,5.257,5.257,0,0,0,.559-1.437,6.86,6.86,0,0,0,.173-1.53V2.736a1.1,1.1,0,0,0-.033-0.279,0.46,0.46,0,0,0-.12-0.213,0.373,0.373,0,0,0-.273-0.086l-0.126.073a0.589,0.589,0,0,0-.126.1l-7.584,7.6a2.344,2.344,0,0,1-.9.579,3.245,3.245,0,0,1-1.058.166V22.595H21.664Z" transform="translate(-0.375 -0.454)" fill="#f2c812"/></svg>