<?xml version="1.0" encoding="utf-8"?>
<!-- Generator: Adobe Illustrator 18.0.0, SVG Export Plug-In . SVG Version: 6.00 Build 0)  -->
<!DOCTYPE svg PUBLIC "-//W3C//DTD SVG 1.1//EN" "http://www.w3.org/Graphics/SVG/1.1/DTD/svg11.dtd">
<svg version="1.1" id="Layer_1" xmlns="http://www.w3.org/2000/svg" xmlns:xlink="http://www.w3.org/1999/xlink" x="0px" y="0px"
	 viewBox="0 0 90 90" enable-background="new 0 0 90 90" xml:space="preserve">
<title>icon_featured</title>
<path fill="#FFFFFF" d="M66.1,5.6c3.2,0,6.4,0.6,9.3,1.9c2.8,1.2,5.4,2.9,7.6,5.1c2.2,2.2,3.9,4.8,5.1,7.6c1.2,2.9,1.9,6.1,1.9,9.3
	c0,6.3-2.5,12.4-7,16.9l-38,38l-38-38c-4.5-4.5-7-10.6-7-16.9c0-3.2,0.6-6.4,1.9-9.3c1.2-2.8,2.9-5.4,5.1-7.6
	c2.2-2.2,4.8-3.9,7.6-5.1c2.9-1.3,6.1-1.9,9.3-1.9c2.2,0,4.4,0.3,6.5,0.8C32.3,7,34,7.7,35.7,8.7c1.7,1,3.2,2.2,4.7,3.5
	c1.5,1.4,3,2.9,4.6,4.5c1.6-1.6,3.2-3.1,4.6-4.5c1.4-1.3,3-2.5,4.7-3.5c1.7-1,3.4-1.8,5.3-2.3C61.7,5.9,63.9,5.6,66.1,5.6z M79,42.4
	c1.7-1.7,3-3.7,4-5.9c0.9-2.2,1.4-4.6,1.4-7c0-2.5-0.5-4.9-1.4-7.1c-0.9-2.2-2.2-4.1-3.9-5.8c-1.7-1.6-3.6-2.9-5.8-3.8
	c-2.3-0.9-4.7-1.4-7.1-1.4c-2.2,0-4.5,0.4-6.6,1.2c-1.9,0.8-3.7,1.8-5.3,3.1c-1.7,1.3-3.2,2.7-4.6,4.3c-1.5,1.6-3,3.2-4.6,4.9
	c-1.6-1.6-3.1-3.2-4.6-4.8c-1.4-1.6-3-3-4.7-4.4c-1.6-1.3-3.4-2.4-5.3-3.2c-2.1-0.8-4.3-1.3-6.5-1.2c-2.4,0-4.9,0.5-7.1,1.4
	c-4.4,1.8-7.9,5.3-9.7,9.7C5.2,26.9,5.2,32,7,36.5c0.9,2.2,2.3,4.2,4,5.9l34,34L79,42.4z"/>
</svg>
