<svg xmlns="http://www.w3.org/2000/svg" width="8.75" height="10" viewBox="0 0 8.75 10">
  <title>button_5</title>
  <path d="M501.49,498.75V505h-5v-0.625h-3.75V496.25h2.5a1.192,1.192,0,0,1,.1-0.483A1.266,1.266,0,0,1,496,495.1a1.223,1.223,0,0,1,.969,0,1.26,1.26,0,0,1,.667.667,1.192,1.192,0,0,1,.1.483h2.5v2.5h1.25Zm-5,5v-5h3.125v-1.875H498.99v1.25h-5v-1.25h-0.625v6.875h3.125Zm-1.875-6.875V497.5h3.75v-0.625h-1.25c0-.082,0-0.168,0-0.261a2.647,2.647,0,0,0,0-.278,1.6,1.6,0,0,0-.042-0.269,0.667,0.667,0,0,0-.1-0.227,0.487,0.487,0,0,0-.186-0.156,0.664,0.664,0,0,0-.3-0.059,0.557,0.557,0,0,0-.4.127,0.681,0.681,0,0,0-.181.315,1.419,1.419,0,0,0-.046.408q0.005,0.22,0,.4h-1.25Zm6.25,2.5h-3.75v5h3.75v-5Z" transform="translate(-492.74 -495)" fill="#fff"/>
</svg>
