<svg version="1.1"  id="microsoft" xmlns="http://www.w3.org/2000/svg" xmlns:xlink="http://www.w3.org/1999/xlink" x="0px" y="0px" viewBox="0 0 90 19">
    <path fill="#ffffff" d="M37.339,3.843v11.4h-1.98V6.307h-0.032l-3.538,8.936h-1.312l-3.625-8.936h-0.024v8.936H25v-11.4h2.838 l3.276,8.451h0.048l3.458-8.451H37.339z M38.994,4.709c0-0.318,0.115-0.584,0.346-0.799c0.231-0.215,0.505-0.322,0.823-0.322 c0.339,0,0.62,0.11,0.843,0.33c0.223,0.22,0.334,0.484,0.334,0.791c0,0.313-0.114,0.575-0.342,0.787 c-0.228,0.212-0.506,0.318-0.835,0.318s-0.606-0.107-0.831-0.322C39.107,5.278,38.994,5.017,38.994,4.709z M41.117,7.071v8.173 h-1.924V7.071H41.117z M46.952,13.844c0.286,0,0.601-0.066,0.946-0.199c0.344-0.133,0.662-0.307,0.954-0.525v1.789 c-0.307,0.175-0.656,0.308-1.045,0.398c-0.389,0.09-0.818,0.135-1.284,0.135c-1.203,0-2.181-0.38-2.933-1.141 c-0.753-0.76-1.129-1.732-1.129-2.914c0-1.314,0.384-2.397,1.153-3.248c0.768-0.851,1.858-1.276,3.267-1.276 c0.36,0,0.725,0.046,1.093,0.139c0.368,0.093,0.661,0.2,0.878,0.322v1.844c-0.297-0.217-0.6-0.386-0.91-0.505 c-0.31-0.119-0.627-0.179-0.95-0.179c-0.758,0-1.37,0.246-1.836,0.739c-0.467,0.493-0.7,1.158-0.7,1.995 c0,0.827,0.224,1.471,0.672,1.932C45.575,13.613,46.184,13.844,46.952,13.844z M54.33,6.935c0.154,0,0.292,0.011,0.413,0.032 c0.122,0.021,0.225,0.048,0.31,0.08v1.948c-0.101-0.074-0.248-0.144-0.441-0.211c-0.194-0.066-0.428-0.099-0.704-0.099 c-0.472,0-0.871,0.199-1.197,0.596c-0.326,0.398-0.489,1.01-0.489,1.836v4.126h-1.924V7.071h1.924v1.288h0.032 c0.175-0.445,0.44-0.794,0.795-1.045C53.405,7.061,53.831,6.935,54.33,6.935z M55.157,11.276c0-1.352,0.382-2.422,1.145-3.212 c0.763-0.79,1.823-1.185,3.18-1.185c1.277,0,2.275,0.38,2.993,1.141c0.718,0.761,1.077,1.788,1.077,3.081 c0,1.325-0.382,2.38-1.145,3.164c-0.763,0.785-1.802,1.177-3.117,1.177c-1.267,0-2.272-0.372-3.017-1.117 C55.53,13.58,55.157,12.564,55.157,11.276z M57.161,11.212c0,0.853,0.193,1.505,0.58,1.956c0.387,0.451,0.941,0.676,1.661,0.676 c0.7,0,1.232-0.225,1.598-0.676c0.366-0.451,0.549-1.118,0.549-2.003c0-0.88-0.189-1.544-0.568-1.992 c-0.379-0.448-0.91-0.672-1.594-0.672c-0.705,0-1.252,0.234-1.642,0.704C57.355,9.674,57.161,10.343,57.161,11.212z M66.414,9.217 c0,0.276,0.087,0.492,0.262,0.648c0.175,0.156,0.562,0.354,1.161,0.592c0.768,0.308,1.308,0.653,1.618,1.038 c0.31,0.384,0.465,0.849,0.465,1.395c0,0.769-0.295,1.386-0.886,1.852c-0.591,0.467-1.39,0.7-2.397,0.7 c-0.339,0-0.714-0.041-1.125-0.123c-0.411-0.082-0.759-0.187-1.045-0.314v-1.892c0.35,0.244,0.726,0.437,1.129,0.58 c0.403,0.143,0.768,0.215,1.097,0.215c0.435,0,0.755-0.061,0.962-0.183c0.207-0.122,0.31-0.326,0.31-0.612 c0-0.265-0.107-0.489-0.322-0.672c-0.215-0.183-0.621-0.394-1.22-0.632c-0.71-0.297-1.214-0.631-1.511-1.002 c-0.297-0.371-0.445-0.843-0.445-1.415c0-0.737,0.293-1.342,0.879-1.817c0.586-0.474,1.345-0.711,2.278-0.711 c0.286,0,0.607,0.032,0.962,0.095c0.355,0.064,0.652,0.146,0.89,0.247v1.829c-0.254-0.17-0.551-0.315-0.89-0.437 c-0.339-0.122-0.676-0.183-1.01-0.183c-0.366,0-0.651,0.072-0.855,0.215C66.516,8.772,66.414,8.968,66.414,9.217z M70.747,11.276 c0-1.352,0.382-2.422,1.145-3.212c0.763-0.79,1.823-1.185,3.18-1.185c1.277,0,2.275,0.38,2.993,1.141 c0.718,0.761,1.077,1.788,1.077,3.081c0,1.325-0.382,2.38-1.145,3.164c-0.763,0.785-1.802,1.177-3.117,1.177 c-1.267,0-2.272-0.372-3.017-1.117C71.119,13.58,70.747,12.564,70.747,11.276z M72.75,11.212c0,0.853,0.193,1.505,0.58,1.956 c0.387,0.451,0.941,0.676,1.661,0.676c0.7,0,1.232-0.225,1.598-0.676c0.366-0.451,0.549-1.118,0.549-2.003 c0-0.88-0.189-1.544-0.568-1.992c-0.379-0.448-0.91-0.672-1.594-0.672c-0.705,0-1.252,0.234-1.642,0.704 C72.945,9.674,72.75,10.343,72.75,11.212z M85.525,8.645H82.66v6.599h-1.948V8.645h-1.367V7.071h1.367V5.934 c0-0.859,0.279-1.562,0.839-2.111C82.11,3.274,82.826,3,83.701,3c0.233,0,0.44,0.012,0.62,0.036c0.18,0.024,0.339,0.06,0.477,0.107 v1.662c-0.064-0.037-0.175-0.082-0.334-0.135c-0.159-0.053-0.342-0.08-0.548-0.08c-0.403,0-0.713,0.126-0.93,0.378 c-0.217,0.252-0.326,0.624-0.326,1.117v0.986h2.865V5.234l1.932-0.588v2.425h1.948v1.574h-1.948v3.824 c0,0.504,0.091,0.859,0.274,1.065c0.183,0.207,0.47,0.31,0.863,0.31c0.111,0,0.245-0.026,0.402-0.08 c0.156-0.053,0.293-0.116,0.409-0.191v1.59c-0.122,0.069-0.325,0.132-0.608,0.191c-0.283,0.058-0.563,0.087-0.839,0.087 c-0.811,0-1.419-0.216-1.824-0.648c-0.406-0.432-0.608-1.083-0.608-1.952V8.645z"></path>
    <rect x="0" y="0" fill="#f65314" width="9.03" height="9.03"></rect>
    <rect x="9.97" y="0" fill="#7cbb00" width="9.03" height="9.03"></rect>
    <rect x="0" y="9.97" fill="#00a1f1" width="9.03" height="9.03"></rect>
    <rect x="9.97" y="9.97" fill="#ffbb00" width="9.03" height="9.03"></rect>
</svg>