<?xml version="1.0" encoding="utf-8"?>
<!-- Generator: Adobe Illustrator 15.0.0, SVG Export Plug-In . SVG Version: 6.00 Build 0)  -->
<!DOCTYPE svg PUBLIC "-//W3C//DTD SVG 1.1//EN" "http://www.w3.org/Graphics/SVG/1.1/DTD/svg11.dtd">
<svg version="1.1" id="Layer_1" xmlns="http://www.w3.org/2000/svg" xmlns:xlink="http://www.w3.org/1999/xlink" x="0px" y="0px"
	 width="20px" height="20px" viewBox="0 0 20 20" enable-background="new 0 0 20 20" xml:space="preserve">
<path fill="#FFFFFF" d="M17.084,7.917c0,2.992-2.425,5.417-5.416,5.417c-1.342,0-2.576-0.492-3.525-1.301l-0.225,0.225v0.658
	L3.75,17.084l-1.25-1.25l4.168-4.168h0.658l0.225-0.225C6.742,10.492,6.25,9.258,6.25,7.917c0-2.992,2.426-5.417,5.418-5.417
	C14.659,2.5,17.084,4.925,17.084,7.917 M15.418,7.917c0-2.083-1.668-3.75-3.75-3.75c-2.084,0-3.75,1.667-3.75,3.75
	c0,2.083,1.666,3.75,3.75,3.75C13.75,11.666,15.418,10,15.418,7.917z"/>
</svg>
