<svg id="twitter" xmlns="http://www.w3.org/2000/svg" width="85.396" height="69.31" viewBox="0 0 85.396 69.31">
  <title>social-T</title>
  <g id="Layer_2" data-name="Layer 2">
    <g id="Layer_1-2" data-name="Layer 1">
      <g id="_Group_" data-name=" Group ">
        <path d="M85.4,8.076a36.371,36.371,0,0,1-8.772,9.083v2.251A49.3,49.3,0,0,1,63.775,53.026,46.968,46.968,0,0,1,26.822,69.29,48.6,48.6,0,0,1,0,61.371a30.238,30.238,0,0,0,4.192.388A34.12,34.12,0,0,0,25.929,54,16.652,16.652,0,0,1,15.721,50.5a17.2,17.2,0,0,1-6.172-8.656,18.011,18.011,0,0,0,3.3.311,18.632,18.632,0,0,0,4.658-.582A17.079,17.079,0,0,1,3.882,24.534V24.3a22.087,22.087,0,0,0,7.763,2.174A16.73,16.73,0,0,1,3.882,11.919a17.273,17.273,0,0,1,2.29-8.85A47.705,47.705,0,0,0,42.193,21.39a19.874,19.874,0,0,1-.427-3.882A17.506,17.506,0,0,1,59.273,0h0A16.807,16.807,0,0,1,72.043,5.553a34.935,34.935,0,0,0,11.14-4.309,17,17,0,0,1-7.763,9.743A35.828,35.828,0,0,0,85.4,8.076Z" fill="#232020"/>
      </g>
    </g>
  </g>
</svg>
