<svg id="youtube" xmlns="http://www.w3.org/2000/svg" width="105.396" height="74.256" viewBox="0 0 105.396 74.256">
  <title>social-Y</title>
  <g id="Layer_2" data-name="Layer 2">
    <g id="Layer_1-2" data-name="Layer 1">
      <path d="M103.194,11.6a13.243,13.243,0,0,0-9.318-9.379C85.656,0,52.7,0,52.7,0S19.74,0,11.521,2.217A13.243,13.243,0,0,0,2.2,11.6C0,19.868,0,37.128,0,37.128s0,17.26,2.2,25.533a13.243,13.243,0,0,0,9.318,9.379C19.74,74.256,52.7,74.256,52.7,74.256s32.958,0,41.178-2.217a13.243,13.243,0,0,0,9.318-9.379c2.2-8.273,2.2-25.533,2.2-25.533S105.4,19.868,103.194,11.6ZM41.919,52.8V21.457L69.466,37.129Z" fill="#232020"/>
    </g>
  </g>
</svg>
