<svg xmlns="http://www.w3.org/2000/svg" viewBox="0 0 27.442 24.025"><title>icon_featured</title><path d="M20.432,0.363A7.053,7.053,0,0,1,23.272.94,7.488,7.488,0,0,1,25.59,2.5a7.237,7.237,0,0,1,1.561,2.318,7.139,7.139,0,0,1,.569,2.834,7.293,7.293,0,0,1-2.131,5.159L14,24.388,2.41,12.811A7.293,7.293,0,0,1,.279,7.653,7.139,7.139,0,0,1,.848,4.819,7.237,7.237,0,0,1,2.41,2.5,7.488,7.488,0,0,1,4.728.94,7.053,7.053,0,0,1,7.568.363,7.074,7.074,0,0,1,9.551.618a6.8,6.8,0,0,1,1.615.7A8.637,8.637,0,0,1,12.586,2.4Q13.263,3.03,14,3.78q0.737-.75,1.414-1.38a8.637,8.637,0,0,1,1.42-1.079,6.8,6.8,0,0,1,1.615-.7A7.074,7.074,0,0,1,20.432.363Zm3.939,11.229a5.444,5.444,0,0,0,1.206-1.809,5.588,5.588,0,0,0,.415-2.131,5.521,5.521,0,0,0-.429-2.177A5.369,5.369,0,0,0,24.378,3.72a5.542,5.542,0,0,0-1.769-1.166,5.6,5.6,0,0,0-2.177-.422,5.254,5.254,0,0,0-2,.355,6.711,6.711,0,0,0-1.608.931,12.039,12.039,0,0,0-1.414,1.306Q14.737,5.455,14,6.206q-0.724-.724-1.407-1.461a12.754,12.754,0,0,0-1.427-1.327,7.073,7.073,0,0,0-1.621-.965,4.982,4.982,0,0,0-1.976-.375A5.462,5.462,0,0,0,5.4,2.514,5.549,5.549,0,0,0,2.43,5.482a5.608,5.608,0,0,0-.013,4.3,5.532,5.532,0,0,0,1.213,1.809L14,21.963Z" transform="translate(-0.279 -0.363)" fill="#999"/></svg>