<svg xmlns="http://www.w3.org/2000/svg" viewBox="0 0 27.441 24.026"><title>icon_featured_yellow</title><path d="M20.153,0a7.053,7.053,0,0,1,2.84.577,7.488,7.488,0,0,1,2.318,1.56,7.237,7.237,0,0,1,1.561,2.318,7.139,7.139,0,0,1,.569,2.834,7.293,7.293,0,0,1-2.131,5.159L13.721,24.025,2.131,12.448A7.293,7.293,0,0,1,0,7.29,7.139,7.139,0,0,1,.569,4.456,7.237,7.237,0,0,1,2.131,2.137,7.488,7.488,0,0,1,4.449.577,7.053,7.053,0,0,1,7.289,0,7.074,7.074,0,0,1,9.272.255a6.8,6.8,0,0,1,1.615.7,8.637,8.637,0,0,1,1.42,1.082q0.677,0.63,1.414,1.38,0.737-.75,1.414-1.38A8.637,8.637,0,0,1,16.555.958a6.8,6.8,0,0,1,1.615-.7A7.074,7.074,0,0,1,20.153,0Zm3.939,11.229A5.444,5.444,0,0,0,25.3,9.42a5.588,5.588,0,0,0,.415-2.131,5.521,5.521,0,0,0-.429-2.177A5.369,5.369,0,0,0,24.1,3.357,5.542,5.542,0,0,0,22.33,2.191a5.6,5.6,0,0,0-2.177-.422,5.254,5.254,0,0,0-2,.355,6.711,6.711,0,0,0-1.608.931,12.039,12.039,0,0,0-1.414,1.306q-0.673.731-1.41,1.482Q13,5.119,12.314,4.382a12.754,12.754,0,0,0-1.427-1.327A7.073,7.073,0,0,0,9.266,2.09,4.982,4.982,0,0,0,7.29,1.715a5.462,5.462,0,0,0-2.169.436,5.549,5.549,0,0,0-2.97,2.968,5.608,5.608,0,0,0-.013,4.3,5.532,5.532,0,0,0,1.213,1.809L13.721,21.6Z" transform="translate(0 0.001)" fill="#f2c812"/></svg>