<svg id ="social_rss" xmlns="http://www.w3.org/2000/svg" width="32" height="32" viewBox="0 0 83.872 83.872">
  <title>rss</title>
  <g id="Layer_2" data-name="Layer 2">
    <g id="Layer_1-2" data-name="Layer 1">
      <g>
        <path d="M10.5,62.9A10.484,10.484,0,1,0,20.968,73.388,10.485,10.485,0,0,0,10.5,62.9Z" fill="#232020"/>
        <path d="M10.484,0a10.484,10.484,0,0,0,0,20.968A52.479,52.479,0,0,1,62.9,73.388a10.484,10.484,0,1,0,20.968,0A73.469,73.469,0,0,0,10.484,0Z" fill="#232020"/>
        <path d="M10.484,31.452a10.484,10.484,0,1,0,0,20.968A20.992,20.992,0,0,1,31.452,73.388a10.484,10.484,0,0,0,20.968,0A41.985,41.985,0,0,0,10.484,31.452Z" fill="#232020"/>
      </g>
    </g>
  </g>
</svg>
