<?xml version="1.0" encoding="utf-8"?>
<!-- Generator: Adobe Illustrator 18.1.1, SVG Export Plug-In . SVG Version: 6.00 Build 0)  -->
<svg version="1.1" id="Layer_1" xmlns="http://www.w3.org/2000/svg" xmlns:xlink="http://www.w3.org/1999/xlink" x="0px" y="0px"
	 viewBox="-293 385 24 24" enable-background="new -293 385 24 24" xml:space="preserve">
<path fill="#000000" d="M-269,399c0-2.5-2-4.5-4.5-4.5h-5.8c0.1-0.5,0.3-1.3,0.5-1.9c0.9-2.9,1-4.2,0.8-5.3
	c-0.2-1.2-0.7-2.3-2.2-2.4c-1-0.1-1.5,0.6-1.8,1.5h0c0,0-1,4-2.7,6.7c-0.7,1.2-1.2,2.6-1.5,3.8h-1.8v11h4c0.8,0.6,1.9,1,3,1h6.5
	c2.2,0,4.1-1.6,4.4-3.7l0,0l1-5.3l0,0l0.1-0.3l0,0C-269,399.4-269,399.2-269,399L-269,399z M-293,409h3v-13h-3V409z"/>
</svg>
