<svg xmlns="http://www.w3.org/2000/svg" viewBox="0 0 24.194 24.194"><title>icon_recent_yellow</title><path d="M12.1,24.194a11.907,11.907,0,0,1-3.22-.432,12.1,12.1,0,0,1,0-23.33A12.1,12.1,0,0,1,23.762,15.317a12.123,12.123,0,0,1-8.441,8.445A11.907,11.907,0,0,1,12.1,24.194Zm0-22.466a10.018,10.018,0,0,0-4.03.817A10.485,10.485,0,0,0,2.545,8.067a10.018,10.018,0,0,0-.817,4.03,10.018,10.018,0,0,0,.817,4.03,10.485,10.485,0,0,0,5.522,5.522,10.018,10.018,0,0,0,4.03.817,10.018,10.018,0,0,0,4.03-.817,10.485,10.485,0,0,0,5.522-5.522,10.018,10.018,0,0,0,.817-4.03,10.018,10.018,0,0,0-.817-4.03,10.485,10.485,0,0,0-5.522-5.522A10.018,10.018,0,0,0,12.1,1.728Zm0,10.369V5.184H10.369v8.637h6.912V12.1H12.1Z" transform="translate(0 0)" fill="#f2c812"/></svg>