<svg xmlns="http://www.w3.org/2000/svg" viewBox="0 0 24.194 24.194"><title>icon_recent</title><path d="M12.376,24.473a11.907,11.907,0,0,1-3.22-.432A12.123,12.123,0,0,1,.711,15.6a12.216,12.216,0,0,1,0-6.44A12.123,12.123,0,0,1,9.156.711a12.216,12.216,0,0,1,6.44,0,12.123,12.123,0,0,1,8.445,8.445,12.216,12.216,0,0,1,0,6.44A12.123,12.123,0,0,1,15.6,24.041,11.907,11.907,0,0,1,12.376,24.473Zm0-22.466a10.018,10.018,0,0,0-4.03.817A10.485,10.485,0,0,0,2.824,8.346a10.018,10.018,0,0,0-.817,4.03,10.018,10.018,0,0,0,.817,4.03,10.485,10.485,0,0,0,5.522,5.522,10.018,10.018,0,0,0,4.03.817,10.018,10.018,0,0,0,4.03-.817,10.485,10.485,0,0,0,5.522-5.522,10.018,10.018,0,0,0,.817-4.03,10.018,10.018,0,0,0-.817-4.03,10.485,10.485,0,0,0-5.522-5.522A10.018,10.018,0,0,0,12.376,2.007Zm0,10.369V5.463H10.648V14.1H17.56V12.376H12.376Z" transform="translate(-0.279 -0.279)" fill="#999"/></svg>