<svg xmlns="http://www.w3.org/2000/svg" width="11.25" height="11.25" viewBox="0 0 11.25 11.25">
  <title>button_1</title>
  <path d="M496.688,494a5.572,5.572,0,0,1,1.5.2,5.612,5.612,0,0,1,2.484,1.444,5.583,5.583,0,0,1,.879,1.14,5.646,5.646,0,0,1,.564,1.345,5.725,5.725,0,0,1,0,2.994,5.646,5.646,0,0,1-.564,1.345,5.624,5.624,0,0,1-2.019,2.019,5.649,5.649,0,0,1-1.345.565,5.725,5.725,0,0,1-2.994,0,5.614,5.614,0,0,1-3.929-3.929,5.725,5.725,0,0,1,0-2.994,5.614,5.614,0,0,1,3.929-3.929A5.572,5.572,0,0,1,496.688,494Zm0,10.5a4.742,4.742,0,0,0,1.292-.176,4.98,4.98,0,0,0,1.166-.492,4.874,4.874,0,0,0,1.749-1.749,5.013,5.013,0,0,0,.492-1.163,4.847,4.847,0,0,0,0-2.587,5,5,0,0,0-.492-1.166,4.874,4.874,0,0,0-1.749-1.749,4.98,4.98,0,0,0-1.166-.492,4.847,4.847,0,0,0-2.587,0,4.994,4.994,0,0,0-1.163.492,4.874,4.874,0,0,0-1.749,1.749,4.98,4.98,0,0,0-.492,1.166,4.836,4.836,0,0,0,0,2.584,4.98,4.98,0,0,0,.492,1.166,4.874,4.874,0,0,0,1.749,1.749,4.994,4.994,0,0,0,1.163.492A4.732,4.732,0,0,0,496.688,504.5Zm-0.375-7.5h0.75v3.75h-0.75V497Zm0,4.5h0.75v0.75h-0.75V501.5Z" transform="translate(-491.063 -494)" fill="#fff"/>
</svg>
